<?xml version="1.0" encoding="UTF-8"?>
<svg id="Layer_1" data-name="Layer 1" xmlns="http://www.w3.org/2000/svg" viewBox="0 0 315.44 206.92">
  <defs>
    <style>
      .cls-1 {
        fill: #de5a40;
      }
    </style>
  </defs>
  <path class="cls-1" d="M89.64,79.61h-.01v8.57c-4.74,0-8.59-3.84-8.6-8.59h.02v-3.73h-11.85v3.71s.01,0,.01,0c0,4.75-3.86,8.59-8.61,8.59v-8.57s0,0,0,0c.01-12.31,3.84-22.29,8.57-22.36h0s8.86,0,8.86,0c-.08,0-.21,0-.36.02h3.36c4.75,0,8.61,10,8.62,22.36h0ZM81.03,71.17v-1.58c-.26-1.24-.87-2.96-2.34-4.5-.83-.86-1.72-1.46-2.57-1.86-.86-.42-1.87-.36-2.69.14-.5.31-1.01.69-1.49,1.15-2.12,2.04-2.62,4.49-2.74,5.6v1.04h11.84Z"/>
  <path class="cls-1" d="M126.21,66.07c0,12.36-3.85,22.37-8.6,22.37v-21.48c-.86.41-1.77,1-2.61,1.88-2.36,2.47-2.5,5.41-2.52,6.08v8.61h-4.69v-8.61c-.01-.67-.16-3.61-2.52-6.08-1.04-1.08-2.18-1.74-3.21-2.14v21.63c-4.73,0-8.57-9.93-8.6-22.23,0-.05,0-.09,0-.14h0c.07-4.54,3.65-8.22,8.15-8.45h0c.06-.01.12,0,.18,0,.08,0,.17,0,.26,0v.02c3.74.23,6.83,2.84,7.77,6.33.94-3.49,4.03-6.1,7.77-6.33v-.02c.08,0,.17,0,.25,0,.06,0,.12,0,.19,0h0c4.53.24,8.14,3.98,8.15,8.57h0Z"/>
  <path class="cls-1" d="M138.64,79.86h22.32c0,4.75-10.01,8.6-22.37,8.6h0c-4.58-.03-8.31-3.63-8.54-8.16h-.01c0-.06,0-.12,0-.19,0-.08,0-.17,0-.25h.02c.23-3.74,2.84-6.83,6.33-7.77-3.49-.94-6.1-4.03-6.33-7.77h-.02c0-.09,0-.17,0-.25,0-.06,0-.12,0-.19h.01c.23-4.54,3.98-8.15,8.58-8.16h0c12.36,0,22.37,3.85,22.37,8.6h-16.43c-.19,0-.38.02-.56.08-.98.3-2,.98-2.98,1.92-1.06,1.01-1.71,2.13-2.11,3.13h13.98v4.69h-13.65c.37.95.95,1.98,1.88,2.95,2.41,2.52,5.42,2.75,6.08,2.78h-8.55,0Z"/>
  <path class="cls-1" d="M189.36,80.26c0,4.75-3.85,8.6-8.6,8.6h0c-3.85,0-7.11-2.54-8.21-6.03v5.6c-4.74,0-8.58-3.84-8.6-8.57h-.01c.02-12.36,3.88-22.36,8.62-22.36v14.18c.04.99.37,3.59,2.49,5.8,2.41,2.52,5.43,2.75,6.08,2.78h8.22Z"/>
  <path class="cls-1" d="M208.19,65.29v14.65c7.97,1.32,13.55,4.37,13.54,7.92l-22.31-.02v.02c-4.75,0-8.59-3.86-8.59-8.61h8.54s0,0,0,0c.28,0,.55,0,.82,0,1.18-7.69,3.94-13.29,7.24-14.03-9.39-1.03-16.27-4.35-16.26-8.29l22.32.02v-.02c4.75,0,8.59,3.86,8.59,8.61h-8.55s0,0,0,0h8.55v8.86c-.01-.67-.16-3.61-2.52-6.08-2.36-2.46-5.28-2.73-6.03-2.78h0c-1.84,0-3.63-.09-5.34-.25Z"/>
  <path class="cls-1" d="M234.59,79.86h22.32c0,4.75-10.01,8.6-22.37,8.6h0c-4.58-.03-8.31-3.63-8.54-8.16h-.01c0-.06,0-.12,0-.19,0-.08,0-.17,0-.25h.02c.23-3.74,2.84-6.83,6.33-7.77-3.49-.94-6.1-4.03-6.33-7.77h-.02c0-.09,0-.17,0-.25,0-.06,0-.12,0-.19h.01c.23-4.54,3.98-8.15,8.58-8.16h0c12.36,0,22.37,3.85,22.37,8.6h-16.43c-.19,0-.38.02-.56.08-.98.3-2,.98-2.98,1.92-1.06,1.01-1.71,2.13-2.11,3.13h13.98v4.69h-13.65c.37.95.95,1.98,1.88,2.95,2.41,2.52,5.42,2.75,6.08,2.78h-8.55,0Z"/>
  <path class="cls-1" d="M46.87,124.04h-6.81,11.2s0,8.61,0,8.61c-12.36-.02-22.36-3.87-22.36-8.62h4.69s0-13.53,0-13.53h-4.67c0-4.74,9.99-8.6,22.33-8.62v5.22s0-5.21,0-5.21c4.75,0,8.6,3.85,8.6,8.6h-8.6s-4.11,0-4.11,0c-.67.01-4.29-.48-6.76,1.88-1.47,1.41-1.8,3.48-1.8,4.88.05,1.18.79,3.11,2.08,4.45,2.41,2.52,5.57,2.3,6.22,2.33h0ZM59.86,124.04h-8.86c.67-.01,3.61-.16,6.08-2.52,2.52-2.41,2.75-5.42,2.78-6.08v8.6ZM59.86,124.04c0,4.75-3.85,8.6-8.6,8.6v-8.6h8.6Z"/>
  <path class="cls-1" d="M93.14,123.99h-.01v8.57c-4.74,0-8.59-3.84-8.6-8.59h.02v-3.73h-11.85v3.71s.01,0,.01,0c0,4.75-3.86,8.59-8.61,8.59v-8.57s0,0,0,0c.01-12.31,3.84-22.29,8.57-22.36h0s8.86,0,8.86,0c-.08,0-.21,0-.36.02h3.36c4.75,0,8.61,10,8.62,22.36h0ZM84.53,115.55v-1.58c-.26-1.24-.87-2.96-2.34-4.5-.83-.86-1.72-1.46-2.57-1.86-.86-.42-1.87-.36-2.69.14-.5.31-1.01.69-1.49,1.15-2.12,2.04-2.62,4.49-2.74,5.6v1.04h11.84Z"/>
  <path class="cls-1" d="M103,123.67h0s8.46.01,8.46.01c0,4.7-3.78,8.51-8.46,8.58h0s-8.86,0-8.86,0c.67-.01,3.61-.16,6.08-2.52,1.76-1.69,2.4-3.67,2.64-4.93v-1.15h.14s0,0,0,0ZM128.56,124.37h-8.6v-5.87h-8.52v5.17s-8.6,0-8.6,0c.01-12.36,3.88-22.36,8.62-22.36v7.41c.57-4.18,4.16-7.4,8.51-7.41h0c4.75,0,8.6,3.85,8.6,8.6h-8.6s-8.51,0-8.51,0v8.58c1.03-.07,3.56-.43,5.73-2.5,2.52-2.41,2.75-5.43,2.78-6.08v5.87h0v-5.87h8.6c0,3.04-1.58,5.71-3.96,7.24,2.38,1.53,3.96,4.2,3.96,7.23ZM119.97,124.37h8.6c0,4.75-3.85,8.6-8.6,8.6v-8.6Z"/>
  <path class="cls-1" d="M137.21,123.67h0s8.46.01,8.46.01c0,4.7-3.78,8.51-8.46,8.58h0s-8.86,0-8.86,0c.67-.01,3.61-.16,6.08-2.52,1.76-1.69,2.4-3.67,2.64-4.93v-1.15h.14s0,0,0,0ZM162.78,124.37h-8.6v-5.87h-8.52v5.17s-8.6,0-8.6,0c.01-12.36,3.88-22.36,8.62-22.36v7.41c.57-4.18,4.16-7.4,8.51-7.41h0c4.75,0,8.6,3.85,8.6,8.6h-8.6s-8.51,0-8.51,0v8.58c1.03-.07,3.56-.43,5.73-2.5,2.52-2.41,2.75-5.43,2.78-6.08v5.87h0v-5.87h8.6c0,3.04-1.58,5.71-3.96,7.24,2.38,1.53,3.96,4.2,3.96,7.23ZM154.18,124.37h8.6c0,4.75-3.85,8.6-8.6,8.6v-8.6Z"/>
  <path class="cls-1" d="M183.2,109.67v14.65c7.97,1.32,13.55,4.37,13.54,7.92l-22.31-.02v.02c-4.75,0-8.59-3.86-8.59-8.61h8.54s0,0,0,0c.28,0,.55,0,.82,0,1.17-7.69,3.94-13.29,7.24-14.03-9.39-1.03-16.27-4.35-16.27-8.29l22.32.02v-.02c4.75,0,8.59,3.86,8.59,8.61h-8.55s0,0,0,0h8.55v8.86c-.02-.67-.16-3.61-2.52-6.08-2.36-2.46-5.28-2.73-6.03-2.78h0c-1.84,0-3.63-.09-5.34-.25Z"/>
  <path class="cls-1" d="M226.24,124.64c0,4.75-3.85,8.6-8.6,8.6h0c-3.85,0-7.11-2.54-8.21-6.03v5.6c-4.74,0-8.58-3.84-8.6-8.57h-.01c.01-12.36,3.87-22.36,8.62-22.36v14.18c.04.99.37,3.59,2.5,5.8,2.41,2.52,5.42,2.75,6.08,2.78h8.22Z"/>
  <path class="cls-1" d="M253.97,124.64c0,4.75-3.85,8.6-8.6,8.6h0c-3.85,0-7.11-2.54-8.21-6.03v5.6c-4.74,0-8.58-3.84-8.6-8.57h-.01c.01-12.36,3.87-22.36,8.62-22.36v14.18c.04.99.37,3.59,2.5,5.8,2.41,2.52,5.42,2.75,6.08,2.78h8.22Z"/>
  <path class="cls-1" d="M287.02,123.96l-5.21-.07,5.2.07c-.07,4.75-3.97,8.54-8.72,8.48l.12-8.6h0l.23-17.65-9.68-.14-3.86-.06-.27,17.66-8.6-.13c.19-12.36,4.19-22.31,8.94-22.23v.02l3.86.06,9.67.14h.23v.02c4.64.38,8.23,10.29,8.07,22.43ZM278.34,127.75l-.07,4.69-9.9-.14-3.64-.05h0c-4.75-.05-8.54-3.95-8.47-8.7l8.6.12-.06,3.89,3.64.05,9.9.14ZM265.19,122.92l6.35-6.18h.01s-6.18-6.37-6.18-6.37c.48.47,2.63,2.48,6.05,2.6,3.49.12,5.8-1.81,6.3-2.24h-.01c-.45.49-2.45,2.76-2.42,6.24.02,3.42,1.97,5.62,2.43,6.12l-.18-.19c-.48-.45-2.74-2.45-6.23-2.42-3.42.02-5.63,1.97-6.12,2.43ZM267.81,116.87c.12-3.49-1.81-5.8-2.24-6.3l5.99,6.17-6.35,6.18c.47-.48,2.48-2.63,2.6-6.04Z"/>
</svg>