<?xml version="1.0" encoding="UTF-8"?>
<svg id="Layer_2" data-name="Layer 2" xmlns="http://www.w3.org/2000/svg" viewBox="0 0 575.2 353.53">
  <defs>
    <style>
      .cls-1 {
        fill: #be1e2d;
      }

      .cls-2 {
        fill: #f04e34;
      }

      .cls-3 {
        fill: #fff;
        font-family: ABCArizonaSerifUnlicensedTrial-Regular, 'ABC Arizona Serif Unlicensed Trial';
        font-size: 18px;
      }

      .cls-4 {
        letter-spacing: -.02em;
      }

      .cls-5 {
        letter-spacing: -.02em;
      }

      .cls-6 {
        letter-spacing: -.01em;
      }

      .cls-7 {
        letter-spacing: -.01em;
      }

      .cls-8 {
        letter-spacing: -.03em;
      }

      .cls-9 {
        letter-spacing: -.03em;
      }

      .cls-10 {
        letter-spacing: 0em;
      }

      .cls-11 {
        letter-spacing: -.01em;
      }

      .cls-12 {
        letter-spacing: 0em;
      }

      .cls-13 {
        letter-spacing: 0em;
      }

      .cls-14 {
        letter-spacing: 0em;
      }

      .cls-15 {
        letter-spacing: 0em;
      }
    </style>
  </defs>
  <text class="cls-3" transform="translate(135.91 143.73) rotate(-.54)"><tspan x="0" y="0">Fun artistic </tspan><tspan class="cls-12" x="95.7" y="0">e</tspan><tspan x="104.27" y="0">xperimen</tspan><tspan class="cls-10" x="179.96" y="0">t</tspan><tspan x="186.42" y="0">s I li</tspan><tspan class="cls-9" x="219.9" y="0">k</tspan><tspan x="229.1" y="0">e </tspan><tspan class="cls-5" x="242.25" y="0">t</tspan><tspan x="248.5" y="0">o </tspan><tspan x="0" y="20">do ou</tspan><tspan class="cls-14" x="44.58" y="20">t</tspan><tspan x="51.05" y="20">side o</tspan><tspan class="cls-7" x="97.12" y="20">f</tspan><tspan x="102.97" y="20" xml:space="preserve"> studi</tspan><tspan class="cls-15" x="146.95" y="20">o</tspan><tspan x="156.88" y="20">! Clic</tspan><tspan class="cls-6" x="198.66" y="20">k</tspan><tspan x="208.22" y="20" xml:space="preserve"> on the </tspan><tspan x="0" y="40">ima</tspan><tspan class="cls-13" x="29.18" y="40">g</tspan><tspan x="38" y="40">es and d</tspan><tspan class="cls-11" x="102.49" y="40">r</tspan><tspan x="109.49" y="40">ag them a</tspan><tspan class="cls-4" x="185.31" y="40">r</tspan><tspan x="192.25" y="40">ound </tspan><tspan class="cls-8" x="237.43" y="40">:</tspan><tspan x="241.56" y="40">)</tspan></text>
  <g>
    <polygon class="cls-2" points="433.03 81.44 434.17 201.9 380.19 240.25 113.94 242.77 112.45 84.46 433.03 81.44"/>
    <polygon class="cls-1" points="434.35 201.73 379.52 202.69 380.18 240.27 434.35 201.73"/>
  </g>
  <text class="cls-3" transform="translate(140.03 146.42) rotate(-.54)"><tspan x="0" y="0">Fun artistic </tspan><tspan class="cls-12" x="95.7" y="0">e</tspan><tspan x="104.27" y="0">xperimen</tspan><tspan class="cls-10" x="179.96" y="0">t</tspan><tspan x="186.42" y="0">s I li</tspan><tspan class="cls-9" x="219.9" y="0">k</tspan><tspan x="229.1" y="0">e </tspan><tspan class="cls-5" x="242.25" y="0">t</tspan><tspan x="248.5" y="0">o </tspan><tspan x="0" y="20">do ou</tspan><tspan class="cls-14" x="44.58" y="20">t</tspan><tspan x="51.05" y="20">side o</tspan><tspan class="cls-7" x="97.12" y="20">f</tspan><tspan x="102.97" y="20" xml:space="preserve"> studi</tspan><tspan class="cls-15" x="146.95" y="20">o</tspan><tspan x="156.88" y="20">! Clic</tspan><tspan class="cls-6" x="198.66" y="20">k</tspan><tspan x="208.22" y="20" xml:space="preserve"> on the </tspan><tspan x="0" y="40">ima</tspan><tspan class="cls-13" x="29.18" y="40">g</tspan><tspan x="38" y="40">es and d</tspan><tspan class="cls-11" x="102.49" y="40">r</tspan><tspan x="109.49" y="40">ag them a</tspan><tspan class="cls-4" x="185.31" y="40">r</tspan><tspan x="192.25" y="40">ound </tspan><tspan class="cls-8" x="237.43" y="40">:</tspan><tspan x="241.56" y="40">)</tspan></text>
</svg>