<?xml version="1.0" encoding="UTF-8"?>
<svg id="Layer_2" data-name="Layer 2" xmlns="http://www.w3.org/2000/svg" viewBox="0 0 575.2 353.53">
  <defs>
    <style>
      .cls-1 {
        fill: #be1e2d;
      }

      .cls-2 {
        font-family: ABCArizonaSerifUnlicensedTrial-Bold, 'ABC Arizona Serif Unlicensed Trial';
        font-size: 36px;
        font-weight: 700;
      }

      .cls-2, .cls-3 {
        fill: #fff;
      }

      .cls-4 {
        fill: #f04e34;
      }

      .cls-3 {
        font-family: ABCArizonaSerifUnlicensedTrial-Regular, 'ABC Arizona Serif Unlicensed Trial';
        font-size: 18px;
      }

      .cls-5 {
        letter-spacing: -.1em;
      }

      .cls-6 {
        letter-spacing: -.02em;
      }

      .cls-7 {
        letter-spacing: -.02em;
      }

      .cls-8 {
        letter-spacing: -.01em;
      }

      .cls-9 {
        letter-spacing: -.02em;
      }

      .cls-10 {
        letter-spacing: -.01em;
      }

      .cls-11 {
        letter-spacing: -.04em;
      }

      .cls-12 {
        letter-spacing: -.03em;
      }

      .cls-13 {
        letter-spacing: -.03em;
      }

      .cls-14 {
        letter-spacing: 0em;
      }

      .cls-15 {
        letter-spacing: 0em;
      }

      .cls-16 {
        letter-spacing: -.01em;
      }

      .cls-17 {
        letter-spacing: 0em;
      }

      .cls-18 {
        letter-spacing: 0em;
      }

      .cls-19 {
        letter-spacing: 0em;
      }

      .cls-20 {
        letter-spacing: 0em;
      }
    </style>
  </defs>
  <text class="cls-3" transform="translate(141.53 168.31) rotate(-.54)"><tspan x="0" y="0">Fun artistic </tspan><tspan class="cls-17" x="95.7" y="0">e</tspan><tspan x="104.27" y="0">xperimen</tspan><tspan class="cls-14" x="179.96" y="0">t</tspan><tspan x="186.42" y="0">s I li</tspan><tspan class="cls-13" x="219.9" y="0">k</tspan><tspan x="229.1" y="0">e </tspan><tspan class="cls-7" x="242.25" y="0">t</tspan><tspan x="248.5" y="0">o </tspan><tspan x="0" y="20">do ou</tspan><tspan class="cls-19" x="44.58" y="20">t</tspan><tspan x="51.05" y="20">side o</tspan><tspan class="cls-10" x="97.12" y="20">f</tspan><tspan x="102.97" y="20" xml:space="preserve"> studi</tspan><tspan class="cls-20" x="146.95" y="20">o</tspan><tspan x="156.88" y="20">! Clic</tspan><tspan class="cls-8" x="198.66" y="20">k</tspan><tspan x="208.22" y="20" xml:space="preserve"> on the </tspan><tspan x="0" y="40">ima</tspan><tspan class="cls-18" x="29.18" y="40">g</tspan><tspan x="38" y="40">es and d</tspan><tspan class="cls-16" x="102.49" y="40">r</tspan><tspan x="109.49" y="40">ag them a</tspan><tspan class="cls-6" x="185.31" y="40">r</tspan><tspan x="192.25" y="40">ound </tspan><tspan class="cls-12" x="237.43" y="40">:</tspan><tspan x="241.56" y="40">)</tspan></text>
  <g>
    <polygon class="cls-4" points="438.65 106.02 439.79 226.48 385.81 264.84 119.56 267.35 118.07 109.05 438.65 106.02"/>
    <polygon class="cls-1" points="439.97 226.31 385.14 227.27 385.8 264.85 439.97 226.31"/>
  </g>
  <text class="cls-2" transform="translate(161.68 195.85) rotate(-.54)"><tspan x="0" y="0">Selec</tspan><tspan class="cls-9" x="83.12" y="0">t</tspan><tspan x="96.48" y="0">ed</tspan><tspan class="cls-11" x="135.21" y="0"> </tspan><tspan class="cls-5" x="142.16" y="0">W</tspan><tspan x="176" y="0">o</tspan><tspan class="cls-15" x="196.38" y="0">r</tspan><tspan class="cls-9" x="211.68" y="0">k</tspan></text>
</svg>