<?xml version="1.0" encoding="UTF-8"?>
<svg id="Layer_1" data-name="Layer 1" xmlns="http://www.w3.org/2000/svg" viewBox="0 0 575.2 353.53">
  <defs>
    <style>
      .cls-1 {
        fill: #231f20;
      }

      .cls-2 {
        fill: #f6e652;
      }

      .cls-3 {
        fill: #fff;
      }
    </style>
  </defs>
  <circle class="cls-2" cx="286.01" cy="165.91" r="67.03"/>
  <rect class="cls-3" x="242.23" y="127.68" width="29.79" height="37.29" transform="translate(20.35 -31.05) rotate(7.19)"/>
  <rect class="cls-3" x="297.42" y="137.75" width="36.93" height="34.89" transform="translate(21.92 -38.33) rotate(7.19)"/>
  <path class="cls-1" d="M282.05,161.58l-8.25-1.15,8.23,1.16c-1.06,7.51-8,12.75-15.52,11.7l1.92-13.61h.01s3.9-27.93,3.9-27.93l-15.32-2.16-6.11-.86-3.96,27.95-13.61-1.93c2.78-19.56,11.11-34.53,18.62-33.47v.03s6.1.86,6.1.86l15.31,2.15.37.05v.02c7.27,1.53,10.99,17.97,8.31,37.18ZM267.53,165.86l-1.04,7.42-15.68-2.21-5.75-.81v.02c-7.52-1.06-12.75-8-11.7-15.52l13.61,1.92-.87,6.16,5.75.81,15.68,2.21ZM247.64,155.57l11.31-8.52.02-.02-8.52-11.31c.66.84,3.67,4.46,9.06,5.34,5.5.89,9.57-1.71,10.44-2.29l-.02.02c-.8.67-4.42,3.86-5.08,9.4-.65,5.42,2,9.31,2.63,10.19l-.25-.33c-.67-.8-3.86-4.43-9.4-5.09-5.42-.65-9.31,2-10.18,2.63ZM253,146.49c.89-5.5-1.71-9.57-2.3-10.43l8.27,10.98-11.31,8.52c.84-.66,4.46-3.67,5.34-9.06Z"/>
  <path class="cls-1" d="M338.54,169.71l-8.25-1.15,8.23,1.16c-1.06,7.51-8,12.75-15.52,11.7l1.92-13.61h.01s3.9-27.93,3.9-27.93l-15.32-2.16-6.11-.86-3.96,27.95-13.61-1.93c2.78-19.56,11.11-34.53,18.62-33.47v.03s6.1.86,6.1.86l15.31,2.15.37.05v.02c7.27,1.53,10.99,17.97,8.31,37.18ZM324.02,173.99l-1.04,7.42-15.68-2.21-5.75-.81v.02c-7.52-1.06-12.75-8-11.7-15.52l13.61,1.92-.87,6.16,5.75.81,15.68,2.21ZM304.13,163.7l11.31-8.52.02-.02-8.52-11.31c.66.84,3.67,4.46,9.06,5.34,5.5.89,9.57-1.71,10.44-2.29l-.02.02c-.8.67-4.42,3.86-5.08,9.4-.65,5.42,2,9.31,2.63,10.19l-.25-.33c-.67-.8-3.86-4.43-9.4-5.09-5.42-.65-9.31,2-10.18,2.63ZM309.49,154.62c.89-5.5-1.71-9.57-2.3-10.43l8.27,10.98-11.31,8.52c.84-.66,4.46-3.67,5.34-9.06Z"/>
  <path class="cls-1" d="M305.47,195.42h.03c-1.59,12.4-8.93,21.67-16.43,20.8h0s-14.05-1.77-14.05-1.77c.14.01.33.03.57.05l-5.33-.67c-7.53-.94-12.38-11.79-10.83-24.24h.03s1.07-8.62,1.07-8.62c7.37.92,12.92,5.39,12.59,10.07l-.04.3h-.02s-.46,3.76-.46,3.76h0s-.62,6.37-.62,6.37c.25,1.3.82,3.1,2.96,4.94,1.2,1.03,2.55,1.81,3.84,2.39,1.32.59,2.93.74,4.28.4.84-.21,1.69-.49,2.52-.86,3.62-1.63,4.95-3.93,5.06-5.09l.73-5.77h.01s.48-3.74.48-3.74h-.02s.04-.3.04-.3c.85-4.61,7.32-7.56,14.69-6.63l-1.11,8.63h0Z"/>
</svg>