<?xml version="1.0" encoding="UTF-8"?>
<svg id="Layer_2" data-name="Layer 2" xmlns="http://www.w3.org/2000/svg" viewBox="0 0 575.2 353.53">
  <defs>
    <style>
      .cls-1 {
        fill: #fff;
        font-size: 18px;
      }

      .cls-2 {
        fill: #cd622d;
      }

      .cls-3 {
        fill: #fbb040;
      }

      .cls-4 {
        letter-spacing: 0em;
      }

      .cls-5, .cls-6 {
        font-family: ABCArizonaSerifUnlicensedTrial-Bold, 'ABC Arizona Serif Unlicensed Trial';
        font-weight: 700;
      }

      .cls-7, .cls-8, .cls-9, .cls-10, .cls-11 {
        font-family: ABCArizonaSerifUnlicensedTrial-Regular, 'ABC Arizona Serif Unlicensed Trial';
      }

      .cls-12 {
        letter-spacing: -.02em;
      }

      .cls-13 {
        letter-spacing: -.02em;
      }

      .cls-14, .cls-10 {
        letter-spacing: -.02em;
      }

      .cls-15 {
        letter-spacing: -.01em;
      }

      .cls-16 {
        letter-spacing: -.03em;
      }

      .cls-17 {
        letter-spacing: -.03em;
      }

      .cls-18 {
        letter-spacing: -.03em;
      }

      .cls-19 {
        letter-spacing: -.03em;
      }

      .cls-6 {
        letter-spacing: .01em;
      }

      .cls-20, .cls-8 {
        letter-spacing: -.01em;
      }

      .cls-21 {
        letter-spacing: 0em;
      }

      .cls-22, .cls-9 {
        letter-spacing: 0em;
      }

      .cls-23 {
        letter-spacing: 0em;
      }

      .cls-11 {
        letter-spacing: -.03em;
      }
    </style>
  </defs>
  <polygon class="cls-3" points="473.35 114.02 473.57 234.49 419.29 272.43 153.03 272.89 152.76 114.58 473.35 114.02"/>
  <text class="cls-1" transform="translate(172.7 147.67) rotate(-.1)"><tspan class="cls-7"><tspan x="0" y="0">I</tspan><tspan class="cls-17" x="6.8" y="0">’</tspan><tspan x="10.24" y="0">m a sophomo</tspan><tspan class="cls-13" x="116.08" y="0">r</tspan><tspan x="123.03" y="0">e stu</tspan><tspan class="cls-22" x="160.18" y="0">d</tspan><tspan class="cls-23" x="170.2" y="0">y</tspan><tspan x="179.64" y="0">ing g</tspan><tspan class="cls-20" x="217.98" y="0">r</tspan><tspan x="224.98" y="0">aphic </tspan></tspan><tspan class="cls-7" x="0" y="20">design and </tspan><tspan class="cls-9" x="89.4" y="20">g</tspan><tspan class="cls-7" x="98.22" y="20">eog</tspan><tspan class="cls-8" x="125.92" y="20">r</tspan><tspan class="cls-7" x="132.93" y="20">ap</tspan><tspan class="cls-10" x="151.72" y="20">h</tspan><tspan class="cls-11" x="161.66" y="20">y</tspan><tspan class="cls-7" x="170.57" y="20"> </tspan><tspan class="cls-5" x="174.99" y="20">@ UT</tspan><tspan class="cls-6" x="219.49" y="20">K</tspan><tspan class="cls-5" x="233.64" y="20">! </tspan><tspan class="cls-7"><tspan x="0" y="60">I</tspan><tspan class="cls-17" x="6.8" y="60">’</tspan><tspan x="10.24" y="60">m in</tspan><tspan class="cls-14" x="45.88" y="60">t</tspan><tspan x="52.13" y="60">e</tspan><tspan class="cls-13" x="60.86" y="60">r</tspan><tspan x="67.8" y="60">es</tspan><tspan class="cls-14" x="83.93" y="60">t</tspan><tspan x="90.18" y="60">ed in </tspan><tspan class="cls-21" x="133.88" y="60">e</tspan><tspan class="cls-4" x="142.45" y="60">xploring </tspan></tspan><tspan class="cls-7"><tspan x="0" y="80">di</tspan><tspan class="cls-20" x="15.55" y="80">ff</tspan><tspan x="26.84" y="80">e</tspan><tspan class="cls-13" x="35.57" y="80">r</tspan><tspan x="42.51" y="80">ent</tspan><tspan class="cls-16" x="68.4" y="80"> </tspan><tspan class="cls-18" x="72.29" y="80">w</tspan><tspan class="cls-12" x="85.35" y="80">a</tspan><tspan class="cls-15" x="93.53" y="80">y</tspan><tspan x="102.74" y="80">s cultu</tspan><tspan class="cls-13" x="154.85" y="80">r</tspan><tspan x="161.8" y="80">e can connect </tspan></tspan><tspan class="cls-7"><tspan class="cls-23" x="0" y="100">w</tspan><tspan x="13.52" y="100">ith design</tspan><tspan class="cls-19" x="91.4" y="100">.</tspan><tspan x="95.11" y="100"> </tspan></tspan></text>
  <polygon class="cls-2" points="473.75 234.32 418.91 234.86 419.28 272.44 473.75 234.32"/>
</svg>